<svg width="21" height="21" viewBox="0 0 21 21" fill="none" xmlns="http://www.w3.org/2000/svg">
<path d="M1.98318 19.6884L19.8818 1.78981C20.2111 1.46046 20.2111 0.925901 19.8818 0.596602C19.5524 0.267254 19.0179 0.267303 18.6886 0.596601L0.789965 18.4952C0.460667 18.8245 0.460617 19.3591 0.789965 19.6884C1.11931 20.0178 1.65388 20.0177 1.98318 19.6884Z" fill="#FE6921"/>
<path d="M19.6886 18.5871L1.78997 0.688433C1.46062 0.359085 0.926053 0.359134 0.596754 0.688433C0.267406 1.01778 0.267456 1.55234 0.596755 1.88164L18.4954 19.7803C18.8247 20.1096 19.3593 20.1096 19.6886 19.7803C20.018 19.451 20.0179 18.9164 19.6886 18.5871Z" fill="#FE6921"/>
</svg>
