<svg width="94" height="26" viewBox="0 0 94 26" fill="none" xmlns="http://www.w3.org/2000/svg">
<path d="M2.52 21L7.128 8.256H0.552V3.84H13.92V4.392L8.064 21H2.52ZM15.6225 21V3.84H21.0705V16.8H27.3105V21H15.6225Z" fill="white"/>
<path d="M36.312 21.216C35.288 21.216 34.488 21.064 33.912 20.76V19.032C34.664 19.352 35.424 19.512 36.192 19.512C38.048 19.512 38.976 18.424 38.976 16.248V3.84H41.064V16.344C41.064 17.976 40.624 19.2 39.744 20.016C38.864 20.816 37.72 21.216 36.312 21.216ZM48.2381 21.216C47.0061 21.216 45.9981 20.912 45.2141 20.304C44.4461 19.68 44.0621 18.752 44.0621 17.52C44.0621 16.176 44.6541 15.192 45.8381 14.568C47.0381 13.944 48.5421 13.632 50.3501 13.632H52.1501V12.72C52.1501 11.712 51.9421 10.992 51.5261 10.56C51.1101 10.112 50.4221 9.888 49.4621 9.888C47.7341 9.888 46.7741 10.64 46.5821 12.144H44.5901C44.7181 10.8 45.2461 9.816 46.1741 9.192C47.1021 8.552 48.2301 8.232 49.5581 8.232C52.6141 8.232 54.1421 9.728 54.1421 12.72V21H52.1501V19.416C51.1901 20.616 49.8861 21.216 48.2381 21.216ZM48.4301 19.632C49.5181 19.632 50.4061 19.368 51.0941 18.84C51.7981 18.296 52.1501 17.552 52.1501 16.608V15.048H50.4221C47.5101 15.048 46.0541 15.872 46.0541 17.52C46.0541 18.928 46.8461 19.632 48.4301 19.632ZM63.2631 21.216C61.4871 21.216 60.0151 20.64 58.8471 19.488C57.6951 18.32 57.1191 16.776 57.1191 14.856V14.664C57.1191 12.776 57.7031 11.232 58.8711 10.032C60.0551 8.832 61.5031 8.232 63.2151 8.232C64.6551 8.232 65.8791 8.592 66.8871 9.312C67.8951 10.016 68.4871 11.12 68.6631 12.624H66.6951C66.4071 10.8 65.2471 9.888 63.2151 9.888C62.0471 9.888 61.0791 10.328 60.3111 11.208C59.5591 12.072 59.1831 13.224 59.1831 14.664V14.856C59.1831 16.36 59.5511 17.52 60.2871 18.336C61.0391 19.152 62.0391 19.56 63.2871 19.56C64.2311 19.56 65.0391 19.296 65.7111 18.768C66.3991 18.224 66.7911 17.464 66.8871 16.488H68.7351C68.6071 17.864 68.0311 19 67.0071 19.896C65.9991 20.776 64.7511 21.216 63.2631 21.216ZM71.7426 21V2.448H73.7346V14.232L78.9426 8.448H81.2706L75.8946 14.28L81.7266 21H79.3026L73.7346 14.496V21H71.7426ZM87.7712 21.216C86.2672 21.216 85.0832 20.856 84.2192 20.136C83.3712 19.416 82.9152 18.416 82.8512 17.136H84.7952C84.9552 18.752 85.9392 19.56 87.7472 19.56C89.5712 19.56 90.4832 18.896 90.4832 17.568C90.4832 16.944 90.2512 16.488 89.7872 16.2C89.3392 15.896 88.5952 15.648 87.5552 15.456C85.9232 15.152 84.7872 14.736 84.1472 14.208C83.5072 13.664 83.1872 12.848 83.1872 11.76C83.1872 10.672 83.6192 9.816 84.4832 9.192C85.3632 8.552 86.3472 8.232 87.4352 8.232C90.1552 8.232 91.6672 9.44 91.9712 11.856H90.0512C89.9072 11.168 89.6272 10.672 89.2112 10.368C88.7952 10.048 88.1952 9.888 87.4112 9.888C86.6912 9.888 86.1152 10.056 85.6832 10.392C85.2512 10.712 85.0352 11.144 85.0352 11.688C85.0352 12.264 85.2352 12.688 85.6352 12.96C86.0512 13.232 86.8272 13.472 87.9632 13.68C88.7152 13.824 89.3152 13.968 89.7632 14.112C90.2272 14.24 90.6752 14.44 91.1072 14.712C91.5552 14.984 91.8752 15.344 92.0672 15.792C92.2752 16.224 92.3792 16.76 92.3792 17.4C92.3792 18.568 91.9792 19.496 91.1792 20.184C90.3952 20.872 89.2592 21.216 87.7712 21.216Z" fill="white"/>
</svg>
