<svg width="28" height="28" viewBox="0 0 28 28" fill="none" xmlns="http://www.w3.org/2000/svg">
<path d="M14 28C21.732 28 28 21.732 28 14C28 6.26801 21.732 0 14 0C6.26801 0 0 6.26801 0 14C0 21.732 6.26801 28 14 28Z" fill="#FE6921"/>
<path d="M14 0C13.3811 0 12.7716 0.0406875 12.1739 0.118508C19.043 1.01336 24.3478 6.88696 24.3478 14C24.3478 21.113 19.043 26.9866 12.1738 27.8815C12.7716 27.9593 13.3811 28 14 28C21.732 28 28 21.7319 28 14C28 6.26806 21.732 0 14 0Z" fill="#C34204"/>
<path d="M11.5804 21C10.4076 21 9.25836 20.795 8.1645 20.3908L7.08051 19.9903C6.96195 19.9465 6.97836 19.7787 7.1033 19.7574L8.2456 19.5625C9.3039 19.382 10.3047 18.9633 11.1624 18.3451C11.2529 18.2798 11.2164 18.1426 11.105 18.1267C10.1062 17.9844 9.20943 17.3975 8.70629 16.5364L8.44986 16.0975C8.40387 16.0189 8.45953 15.9208 8.55246 15.9165L9.07126 15.8924C9.07301 15.8923 9.0747 15.8922 9.0765 15.8921C9.20678 15.8858 9.23791 15.7135 9.11944 15.6602C8.16904 15.2328 7.48055 14.3743 7.30367 13.3464L7.22461 12.887C7.2099 12.8016 7.28946 12.7291 7.37625 12.7488L7.84302 12.8551C8.09147 12.9116 8.3483 12.9404 8.60643 12.9404C8.60947 12.9404 8.61252 12.9404 8.61561 12.9404C7.62021 12.3209 7.02888 11.274 7.02888 10.1217C7.02888 9.83506 7.06589 9.55155 7.13897 9.279L7.27853 8.75821C7.30277 8.66773 7.41879 8.63681 7.48718 8.70248L7.88108 9.08088C8.92137 10.0803 10.1987 10.8496 11.5754 11.3059C11.9398 11.4182 13.0452 11.7229 13.428 11.7244L13.4374 11.7245C13.4387 11.7245 13.5492 11.7283 13.6208 11.7316C13.6204 11.712 13.62 11.6924 13.62 11.6728C13.62 9.64761 15.3158 8 17.4002 8C18.3955 8 19.3299 8.37045 20.0403 9.04497C20.0683 9.07162 20.1074 9.08461 20.1462 9.07889C20.5115 9.02505 20.8749 8.94009 21.2244 8.82635L22.3898 8.44698C22.5119 8.40724 22.6085 8.55132 22.5218 8.64374L21.6938 9.52621C21.5834 9.64378 21.4649 9.75321 21.339 9.85387C21.2392 9.93359 21.3134 10.0904 21.4403 10.0672C21.5532 10.0467 21.6654 10.0234 21.7764 9.99751L22.8454 9.74831C22.9671 9.72001 23.0512 9.86351 22.9642 9.95075L22.1989 10.7175C21.8891 11.028 21.5455 11.3129 21.1777 11.5645L21.1783 11.582C21.1794 11.6122 21.1804 11.6424 21.1804 11.6728V11.7094C21.1588 16.833 16.8522 21 11.5804 21Z" fill="#FCFCFC"/>
</svg>
