<svg width="217" height="166" viewBox="0 0 217 166" fill="none" xmlns="http://www.w3.org/2000/svg">
<path d="M183.319 14.1531C169.517 7.82003 154.716 3.15414 139.241 0.481791C138.959 0.430216 138.677 0.559106 138.532 0.816892C136.629 4.20243 134.52 8.61913 133.044 12.0906C116.399 9.59879 99.8402 9.59879 83.5371 12.0906C82.0603 8.54197 79.8753 4.20243 77.9632 0.816892C77.818 0.567707 77.5365 0.438817 77.2547 0.481791C61.7881 3.1456 46.9874 7.81149 33.1767 14.1531C33.0571 14.2046 32.9546 14.2906 32.8866 14.4022C4.81275 56.344 -2.87786 97.2549 0.894894 137.659C0.911965 137.856 1.02293 138.045 1.17657 138.165C19.6989 151.768 37.641 160.026 55.2498 165.499C55.5317 165.585 55.8303 165.482 56.0096 165.25C60.175 159.562 63.8881 153.564 67.0716 147.257C67.2595 146.887 67.0802 146.449 66.6962 146.303C60.8066 144.069 55.1986 141.345 49.8041 138.251C49.3774 138.002 49.3432 137.392 49.7358 137.1C50.871 136.249 52.0065 135.364 53.0904 134.47C53.2866 134.307 53.5598 134.273 53.7904 134.376C89.2302 150.556 127.598 150.556 162.62 134.376C162.85 134.264 163.123 134.299 163.328 134.462C164.412 135.355 165.548 136.249 166.691 137.1C167.084 137.392 167.058 138.002 166.632 138.251C161.237 141.405 155.629 144.069 149.731 146.294C149.347 146.44 149.176 146.887 149.364 147.257C152.616 153.555 156.329 159.553 160.418 165.242C160.588 165.482 160.895 165.585 161.177 165.499C178.872 160.026 196.813 151.768 215.336 138.165C215.498 138.045 215.601 137.865 215.618 137.667C220.133 90.956 208.055 50.3806 183.6 14.4108C183.54 14.2906 183.438 14.2046 183.319 14.1531ZM72.364 113.057C61.6942 113.057 52.9026 103.261 52.9026 91.2311C52.9026 79.201 61.5237 69.4053 72.364 69.4053C83.2894 69.4053 91.9959 79.287 91.8251 91.2311C91.8251 103.261 83.204 113.057 72.364 113.057ZM144.319 113.057C133.65 113.057 124.858 103.261 124.858 91.2311C124.858 79.201 133.479 69.4053 144.319 69.4053C155.245 69.4053 163.951 79.287 163.781 91.2311C163.781 103.261 155.245 113.057 144.319 113.057Z" fill="#5865F2"/>
</svg>
