<svg width="219" height="150" viewBox="0 0 219 150" fill="none" xmlns="http://www.w3.org/2000/svg">
<g clip-path="url(#clip0)">
<path d="M195.926 39.4371C196.058 41.0221 196.058 42.607 196.058 44.2066C196.058 92.9456 151.403 149.157 69.75 149.157V149.127C45.6293 149.157 22.0097 143.416 1.7041 132.591C5.21144 132.942 8.73636 133.117 12.2701 133.124C32.2593 133.139 51.6771 127.566 67.403 117.304C48.4071 117.005 31.7494 106.714 25.9302 91.6894C32.5845 92.7557 39.441 92.5366 45.9722 91.0539C25.2622 87.5773 10.3626 72.4581 10.3626 54.8995C10.3626 54.7388 10.3626 54.5854 10.3626 54.4321C16.5334 57.2879 23.4426 58.8728 30.51 59.0481C11.0043 48.2164 4.99168 26.6552 16.7707 9.7978C39.3091 32.8417 72.5629 46.8506 108.26 48.3333C104.683 35.5222 109.57 22.0976 121.103 13.0919C138.983 -0.873231 167.103 -0.157446 183.91 14.6914C193.852 13.0627 203.38 10.0315 212.1 5.73682C208.787 14.2751 201.851 21.5279 192.586 26.1367C201.385 25.2748 209.982 23.3174 218.078 20.3301C212.118 27.7508 204.611 34.2148 195.926 39.4371Z" fill="#1D9BF0"/>
</g>
<defs>
<clipPath id="clip0">
<rect width="218" height="149" fill="white" transform="translate(0.550049 0.5)"/>
</clipPath>
</defs>
</svg>
