<svg width="28" height="28" viewBox="0 0 28 28" fill="none" xmlns="http://www.w3.org/2000/svg">
<path d="M14 28C21.732 28 28 21.732 28 14C28 6.26801 21.732 0 14 0C6.26801 0 0 6.26801 0 14C0 21.732 6.26801 28 14 28Z" fill="#FE6921"/>
<path d="M14 0C13.3811 0 12.7717 0.0406875 12.1739 0.118508C19.0431 1.01336 24.3478 6.88696 24.3478 14C24.3478 21.113 19.043 26.9866 12.1739 27.8815C12.7717 27.9593 13.3811 28 14 28C21.732 28 28 21.7319 28 14C28 6.26806 21.732 0 14 0Z" fill="#C34204"/>
<path d="M20.787 7.87455L20.7341 7.73943C20.7326 7.73555 20.7296 7.73235 20.7258 7.73062L20.5944 7.67057C19.5132 7.17608 17.9882 7.05407 16.6388 7H15.1191C15.1019 7 15.0967 7.02335 15.1121 7.03081L18.2338 8.53778C18.2515 8.54625 18.2417 8.57263 18.2228 8.56766C16.8188 8.19847 15.4005 8.0116 14 8.0116C12.604 8.0116 11.1903 8.19733 9.79066 8.56416C9.77161 8.56914 9.76194 8.54246 9.77982 8.53415L13.0111 7.03098C13.0267 7.02369 13.0216 7.00008 13.0044 7.00008H11.3612C10.0119 7.05416 8.48678 7.17617 7.40561 7.67065L7.27427 7.73071C7.27046 7.73243 7.26745 7.7356 7.26594 7.73951L7.21304 7.87463C6.10655 10.6977 5.79213 15.4904 6.12743 18.4928L6.14501 18.6503L6.26941 18.7474C7.99795 20.0971 10.3092 20.791 11.7633 20.9751L11.9513 20.9989C12.0124 21.0067 12.0708 20.9711 12.0924 20.9131L13.0387 18.3672C13.0682 18.2879 13.018 18.2012 12.9349 18.1881L12.6445 18.1421C11.6319 17.9819 10.1972 17.5573 8.98477 16.4501C8.95891 16.4265 8.98385 16.384 9.01658 16.3962C9.11511 16.4331 9.22377 16.4758 9.33565 16.5198C9.6098 16.6277 9.89333 16.7392 10.0783 16.7835C11.3785 17.0947 12.697 17.2526 13.9999 17.2526V17.2293H14.0026L14.0028 17.2526C15.3031 17.2526 16.6215 17.0948 17.9216 16.7835C18.1067 16.7392 18.3902 16.6277 18.6644 16.5198C18.7762 16.4758 18.8848 16.4331 18.9833 16.3962C19.016 16.384 19.041 16.4265 19.0151 16.4501C17.8068 17.5524 16.3703 17.9759 15.3554 18.136L15.0651 18.1818C14.982 18.1949 14.9317 18.2814 14.9611 18.3608L15.9077 20.9129C15.9292 20.971 15.9876 21.0067 16.0487 20.9989L16.2369 20.9751C17.6909 20.791 20.002 20.097 21.7306 18.7474L21.855 18.6503L21.8725 18.4928C22.2079 15.4904 21.8935 10.6977 20.787 7.87455ZM10.9112 14.8058C9.73583 14.9113 8.7552 13.924 8.85988 12.7404C8.94016 11.8332 9.66568 11.1025 10.5667 11.0216C11.7422 10.9161 12.7228 11.9034 12.6181 13.087C12.5378 13.9942 11.8123 14.7248 10.9112 14.8058ZM17.4334 14.8058C16.258 14.9113 15.2774 13.924 15.382 12.7404C15.4623 11.8332 16.1878 11.1025 17.0889 11.0216C18.2643 10.9161 19.2449 11.9034 19.1403 13.087C19.0599 13.9942 18.3344 14.7248 17.4334 14.8058Z" fill="white"/>
</svg>
